<svg height="512" viewBox="0 0 512 512" width="512" xmlns="http://www.w3.org/2000/svg"><g><g><path d="m496 68v292h-480v-292a19.994 19.994 0 0 1 20-20h440a19.994 19.994 0 0 1 20 20z" fill="#83d8f4"/><path d="m496 360v20a19.994 19.994 0 0 1 -20 20h-440a19.994 19.994 0 0 1 -20-20v-20z" fill="#e0e0e2"/><path d="m320 448h-128l16-48h96z" fill="#898890"/><path d="m168 448h176v24h-176z" fill="#e0e0e2"/></g><g><path d="m476 40h-440a28.031 28.031 0 0 0 -28 28v312a28.031 28.031 0 0 0 28 28h160.9l-10.67 32h-18.23a8 8 0 0 0 -8 8v16h-56a8 8 0 0 0 0 16h304a8 8 0 0 0 0-16h-56v-16a8 8 0 0 0 -8-8h-18.23l-10.67-32h160.9a28.031 28.031 0 0 0 28-28v-312a28.031 28.031 0 0 0 -28-28zm-140 416v8h-160v-8zm-132.9-16 10.67-32h84.46l10.67 32zm284.9-60a12.01 12.01 0 0 1 -12 12h-440a12.01 12.01 0 0 1 -12-12v-12h464zm0-28h-464v-284a12.01 12.01 0 0 1 12-12h440a12.01 12.01 0 0 1 12 12z"/><path d="m122.343 245.657a8 8 0 0 0 11.314-11.314l-26.344-26.343 26.344-26.343a8 8 0 0 0 -11.314-11.314l-32 32a8 8 0 0 0 0 11.314z"/><path d="m194.343 245.657a8 8 0 0 0 11.314 0l32-32a8 8 0 0 0 0-11.314l-32-32a8 8 0 0 0 -11.314 11.314l26.344 26.343-26.344 26.343a8 8 0 0 0 0 11.314z"/><path d="m149.191 247.491a7.993 7.993 0 0 0 10.3-4.682l24-64a8 8 0 1 0 -14.98-5.618l-24 64a8 8 0 0 0 4.68 10.3z"/><path d="m272 248h32a8 8 0 0 0 0-16h-24v-48h24a8 8 0 0 0 0-16h-32a8 8 0 0 0 -8 8v64a8 8 0 0 0 8 8z"/><path d="m328 232a8 8 0 0 0 0 16h32a8 8 0 0 0 8-8v-32a8 8 0 0 0 -8-8h-24v-16h24a8 8 0 0 0 0-16h-32a8 8 0 0 0 -8 8v32a8 8 0 0 0 8 8h24v16z"/><path d="m384 232a8 8 0 0 0 0 16h32a8 8 0 0 0 8-8v-32a8 8 0 0 0 -8-8h-24v-16h24a8 8 0 0 0 0-16h-32a8 8 0 0 0 -8 8v32a8 8 0 0 0 8 8h24v16z"/></g></g></svg>