<svg id="Layer_5" enable-background="new 0 0 64 64" height="512" viewBox="0 0 64 64" width="512" xmlns="http://www.w3.org/2000/svg"><g><g><g><path d="m2 2h60v60h-60z" fill="#969faa"/></g><g><path d="m56 53v3h-3-6-6-6-6-6-6-6-3v-3-6-6-6-6-6-6-6-3h3 6 6 6 6 6 6 6 3v3 6 6 6 6 6 6z" fill="#ccd1d9"/></g><g><path d="m52 13v38c0 .55-.45 1-1 1h-38c-.55 0-1-.45-1-1v-38c0-.55.45-1 1-1h38c.55 0 1 .45 1 1z" fill="#e6e9ed"/></g><g><path d="m38 40h-4-4-4-2v-2-4-4-4-2h2 4 4 4 2v2 4 4 4 2z" fill="#fcd770"/></g><g><path d="m36 29v6c0 .55-.45 1-1 1h-6c-.55 0-1-.45-1-1v-6c0-.55.45-1 1-1h6c.55 0 1 .45 1 1z" fill="#ffeaa7"/></g><g><circle cx="18" cy="46" fill="#ff826e" r="2"/></g><g><circle cx="18" cy="18" fill="#ff826e" r="2"/></g><g><circle cx="46" cy="18" fill="#ff826e" r="2"/></g><g><circle cx="46" cy="46" fill="#ff826e" r="2"/></g></g><g><path d="m1 1v62h62v-62zm60 51h-4v-4h4zm0-6h-4v-4h4zm0-6h-4v-4h4zm0-6h-4v-4h4zm0-6h-4v-4h4zm0-6h-4v-4h4zm0-6h-4v-4h4zm-5.414-9h-1.586v-4h5.586zm-46.586 48v-46h46v46zm43-48h-4v-4h4zm-6 0h-4v-4h4zm-6 0h-4v-4h4zm-6 0h-4v-4h4zm-6 0h-4v-4h4zm-6 0h-4v-4h4zm-6 0h-4v-4h4zm-6 0h-1.586l-4-4h5.586zm-7 5h4v4h-4zm0 6h4v4h-4zm0 6h4v4h-4zm0 6h4v4h-4zm0 6h4v4h-4zm0 6h4v4h-4zm0 6h4v4h-4zm4-39.586v1.586h-4v-5.586zm-4 45.586h4v1.586l-4 4zm5.414 3h1.586v4h-5.586zm3.586 0h4v4h-4zm6 0h4v4h-4zm6 0h4v4h-4zm6 0h4v4h-4zm6 0h4v4h-4zm6 0h4v4h-4zm6 0h4v4h-4zm6 0h1.586l4 4h-5.586zm3-1.414v-1.586h4v5.586zm4-45.586h-4v-1.586l4-4z"/><path d="m51 11h-38c-1.103 0-2 .897-2 2v38c0 1.103.897 2 2 2h38c1.103 0 2-.897 2-2v-38c0-1.103-.897-2-2-2zm-38 40v-38h38l.001 38z"/><path d="m29 37h6c1.103 0 2-.897 2-2v-6c0-1.103-.897-2-2-2h-6c-1.103 0-2 .897-2 2v6c0 1.103.897 2 2 2zm0-8h6l.001 6h-6.001z"/><path d="m41 39h4v-2h-4v-2h4v-2h-4v-2h4v-2h-4v-2h4v-2h-4v-2h-2v-4h-2v4h-2v-4h-2v4h-2v-4h-2v4h-2v-4h-2v4h-2v2h-4v2h4v2h-4v2h4v2h-4v2h4v2h-4v2h4v2h2v4h2v-4h2v4h2v-4h2v4h2v-4h2v4h2v-4h2zm-2 0h-14v-14h14z"/><path d="m18 21c1.654 0 3-1.346 3-3s-1.346-3-3-3-3 1.346-3 3 1.346 3 3 3zm0-4c.551 0 1 .448 1 1s-.449 1-1 1-1-.448-1-1 .449-1 1-1z"/><path d="m18 43c-1.654 0-3 1.346-3 3s1.346 3 3 3 3-1.346 3-3-1.346-3-3-3zm0 4c-.551 0-1-.448-1-1s.449-1 1-1 1 .448 1 1-.449 1-1 1z"/><path d="m46 15c-1.654 0-3 1.346-3 3s1.346 3 3 3 3-1.346 3-3-1.346-3-3-3zm0 4c-.551 0-1-.448-1-1s.449-1 1-1 1 .448 1 1-.449 1-1 1z"/><path d="m46 43c-1.654 0-3 1.346-3 3s1.346 3 3 3 3-1.346 3-3-1.346-3-3-3zm0 4c-.551 0-1-.448-1-1s.449-1 1-1 1 .448 1 1-.449 1-1 1z"/><path d="m31 31h2v2h-2z"/></g></g></svg>